<svg width="243" height="244" viewBox="0 0 243 244" fill="none" xmlns="http://www.w3.org/2000/svg">
<path d="M69.4742 228.98C62.5359 228.98 55.5466 226.87 49.5265 222.498C37.4103 213.701 32.814 198.318 37.0723 184.747C25.5135 182.508 15.4173 174.329 11.3152 162.415C6.86712 149.497 10.6766 135.694 19.9313 126.792C7.04363 118.702 0.75469 102.583 5.66887 87.46C10.6376 72.168 25.4769 62.7808 40.8521 64.0703C36.6418 50.7026 41.0026 35.54 52.8023 26.6484C63.7748 18.3804 78.1869 17.7896 89.5491 23.959C94.9133 12.1953 106.775 4 120.508 4C135.287 4 147.899 13.4912 152.578 26.6987C164.086 16.4321 181.575 15.0005 194.74 24.2139C207.764 33.3271 212.446 49.9961 207.023 64.2178C219.765 65.7651 231.107 74.4912 235.33 87.4761C239.226 99.4531 236.084 112.067 228.199 120.816C239.772 129.088 245.367 144.131 240.983 158.455C235.957 174.911 219.488 184.806 202.947 182.081C208.755 196.258 204.4 213.129 191.473 222.515C181.126 230.037 167.911 230.856 157.057 225.798C154.707 230.206 151.413 234.045 147.441 237.038C141.9 241.214 135.048 243.735 127.609 243.866C111.643 244.15 98.0005 233.305 94.1033 218.49C87.5534 225.356 78.5657 228.98 69.4742 228.98Z" fill="black"/>
<path d="M65.4742 224.98C58.5359 224.98 51.5466 222.87 45.5265 218.498C33.4103 209.701 28.814 194.318 33.0723 180.747C21.5135 178.508 11.4173 170.329 7.31524 158.415C2.86712 145.497 6.67656 131.694 15.9313 122.792C3.04363 114.702 -3.24531 98.583 1.66887 83.46C6.63762 68.168 21.4769 58.7808 36.8521 60.0703C32.6418 46.7026 37.0026 31.54 48.8023 22.6484C59.7748 14.3804 74.1869 13.7896 85.5491 19.959C90.9133 8.19531 102.775 0 116.508 0C131.287 0 143.899 9.49121 148.578 22.6987C160.086 12.4321 177.575 11.0005 190.74 20.2139C203.764 29.3271 208.446 45.9961 203.023 60.2178C215.765 61.7651 227.107 70.4912 231.33 83.4761C235.226 95.4531 232.084 108.067 224.199 116.816C235.772 125.088 241.367 140.131 236.983 154.455C231.957 170.911 215.488 180.806 198.947 178.081C204.755 192.258 200.4 209.129 187.473 218.515C177.126 226.037 163.911 226.856 153.057 221.798C150.707 226.206 147.413 230.045 143.441 233.038C137.9 237.214 131.048 239.735 123.609 239.866C107.643 240.15 94.0005 229.305 90.1033 214.49C83.5534 221.356 74.5657 224.98 65.4742 224.98Z" fill="#B5B35C"/>
<path d="M118.643 173.65C143.813 173.65 164.289 153.176 164.289 128.006C164.289 126.257 162.871 124.839 161.122 124.839C159.372 124.839 157.955 126.255 157.955 128.006C157.955 149.681 140.32 167.316 118.643 167.316C96.9666 167.316 79.3337 149.681 79.3337 128.006C79.3337 126.257 77.9162 124.839 76.1668 124.839C74.4174 124.839 73 126.255 73 128.006C73 153.176 93.4757 173.65 118.644 173.65H118.643Z" fill="#F8F8F8"/>
<path d="M77.8692 90.8546C77.8692 103.188 86.6083 113.219 97.349 113.219C108.09 113.219 116.827 103.188 116.827 90.8546C116.829 78.5215 108.092 68.4883 97.3505 68.4883C86.6078 68.4883 77.8687 78.5215 77.8687 90.8546H77.8692ZM110.495 90.8546C110.495 99.6929 104.599 106.885 97.349 106.885C90.099 106.885 84.2027 99.6929 84.2027 90.8546C84.2027 82.0142 90.099 74.8197 97.349 74.8197C104.599 74.8197 110.495 82.0142 110.495 90.8546Z" fill="#F8F8F8"/>
<path d="M132.242 97.3943C132.242 105.905 138.339 112.829 145.831 112.829C153.324 112.829 159.419 105.905 159.419 97.3943C159.419 88.8838 153.324 81.96 145.831 81.96C138.337 81.96 132.242 88.8838 132.242 97.3943ZM153.085 97.3943C153.085 102.414 149.831 106.495 145.831 106.495C141.83 106.495 138.575 102.414 138.575 97.3943C138.575 92.3747 141.829 88.2934 145.831 88.2934C149.831 88.2934 153.085 92.3747 153.085 97.3943Z" fill="#F8F8F8"/>
<path d="M162.833 84.1575C164.129 84.1575 165.343 83.3564 165.811 82.0662C166.405 80.4201 165.554 78.6051 163.91 78.0127L132.053 66.4904C130.401 65.8821 128.592 66.7468 127.998 68.3929C127.403 70.0389 128.254 71.8539 129.898 72.4463L161.755 83.9686C162.111 84.0998 162.475 84.1575 162.833 84.1575V84.1575Z" fill="#F8F8F8"/>
</svg>
