<svg width="21" height="21" viewBox="0 0 21 21" fill="none" xmlns="http://www.w3.org/2000/svg">
<path d="M20.9879 5.13417L19.8482 11.4025C19.7541 11.921 19.481 12.3901 19.0764 12.7277C18.6718 13.0654 18.1615 13.2502 17.6345 13.25H6.76231L7.17142 15.5H17.25C17.7279 15.4998 18.1935 15.6517 18.5794 15.9337C18.9653 16.2157 19.2513 16.6132 19.3962 17.0686C19.5411 17.5241 19.5373 18.0138 19.3853 18.4669C19.2334 18.92 18.9411 19.313 18.5509 19.589C18.1607 19.865 17.6928 20.0096 17.2149 20.0019C16.737 19.9942 16.274 19.8346 15.8929 19.5463C15.5117 19.2579 15.2323 18.8557 15.0949 18.3979C14.9576 17.9401 14.9695 17.4505 15.129 17H9.621C9.75315 17.3724 9.78491 17.773 9.71309 18.1616C9.64127 18.5502 9.46839 18.913 9.21184 19.2135C8.9553 19.5141 8.62414 19.7418 8.25166 19.8737C7.87919 20.0057 7.47854 20.0372 7.09001 19.9652C6.70148 19.8931 6.33877 19.72 6.03836 19.4633C5.73796 19.2066 5.51045 18.8753 5.37872 18.5028C5.24699 18.1302 5.21568 17.7295 5.28795 17.341C5.36021 16.9526 5.5335 16.5899 5.79039 16.2897L3.19226 2H1.5C1.30109 2 1.11032 1.92098 0.96967 1.78033C0.829018 1.63968 0.75 1.44891 0.75 1.25C0.75 1.05109 0.829018 0.860322 0.96967 0.71967C1.11032 0.579018 1.30109 0.5 1.5 0.5H3.19226C3.54359 0.499845 3.88382 0.623081 4.15356 0.848197C4.42329 1.07331 4.6054 1.38601 4.66809 1.7317L5.12595 4.25H20.25C20.3599 4.25001 20.4684 4.27415 20.5679 4.32071C20.6674 4.36727 20.7554 4.43512 20.8258 4.51946C20.8962 4.6038 20.9472 4.70257 20.9752 4.80879C21.0032 4.91501 21.0076 5.02609 20.9879 5.13417Z" fill="black"/>
</svg>
