<svg width="20" height="19" viewBox="0 0 20 19" fill="none" xmlns="http://www.w3.org/2000/svg">
<path d="M19.7441 17.8737C18.3446 15.4634 16.1035 13.6555 13.4516 12.7978C14.722 12.0419 15.7091 10.8898 16.2614 9.51853C16.8136 8.14724 16.9004 6.63257 16.5084 5.20717C16.1164 3.78178 15.2673 2.52448 14.0916 1.6284C12.9158 0.732321 11.4783 0.247009 10 0.247009C8.52172 0.247009 7.08428 0.732321 5.9085 1.6284C4.73273 2.52448 3.88364 3.78178 3.49165 5.20717C3.09965 6.63257 3.18644 8.14724 3.73868 9.51853C4.29091 10.8898 5.27805 12.0419 6.54848 12.7978C3.89668 13.6555 1.65557 15.4633 0.256111 17.8735C0.190147 17.9875 0.155368 18.1169 0.155274 18.2486C0.155179 18.3803 0.189773 18.5097 0.255575 18.6238C0.321377 18.7379 0.416066 18.8327 0.530116 18.8985C0.644166 18.9644 0.773555 18.9991 0.905266 18.9991L19.0949 18.9993C19.2266 18.9993 19.356 18.9646 19.4701 18.8987C19.5841 18.8329 19.6788 18.7381 19.7446 18.624C19.8104 18.5099 19.845 18.3805 19.8449 18.2488C19.8448 18.1171 19.81 17.9877 19.7441 17.8737L19.7441 17.8737Z" fill="black"/>
</svg>
