<svg width="186" height="186" viewBox="0 0 186 186" fill="none" xmlns="http://www.w3.org/2000/svg">
<path d="M54.0714 138.477C58.0166 144.639 62.5975 150.089 67.6783 154.603H77.8399C74.2491 150.076 71.0049 144.62 68.2069 138.477H54.0714Z" fill="#BD6059"/>
<path d="M126.206 4.29023C118.311 1.45848 109.986 0.00713927 101.597 0C108.782 0.0199879 115.89 1.47885 122.5 4.29023H126.206Z" fill="#BD6059"/>
<path d="M140.259 138.477H152.796C156.873 132.474 160.22 126.008 162.768 119.217H147.621C145.813 125.864 143.347 132.316 140.259 138.477Z" fill="#BD6059"/>
<path d="M178.489 49.5366C175.113 42.1035 170.674 35.1991 165.311 29.0394H161.061C166.201 35.2572 170.455 42.155 173.701 49.5366H178.489Z" fill="#BD6059"/>
<path d="M129.362 154.603C125.812 158.507 121.951 161.677 117.854 164.012H122.991C127.883 161.884 132.481 159.14 136.674 155.846C137.197 155.439 137.716 155.028 138.231 154.603H129.362Z" fill="#BD6059"/>
<path d="M101.597 168.518C101.147 168.518 100.697 168.497 100.256 168.461C94.7025 168.019 89.4589 165.034 88.1164 164.22C87.9019 164.09 87.7832 164.012 87.7832 164.012H81.8234C88.0437 166.906 94.6872 168.518 101.597 168.518Z" fill="#BD6059"/>
<path d="M147.977 13.8726C141.829 9.82668 135.174 6.60501 128.184 4.29028H126.206C132.761 6.64254 138.969 9.86562 144.662 13.8726H147.977Z" fill="#BD6059"/>
<path d="M128.29 49.5366C127.005 42.6035 125.285 35.7577 123.142 29.0394H105.083C105.414 35.3486 105.695 42.3078 105.916 49.5366H128.29Z" fill="#BD6059"/>
<path d="M77.7901 4.29023C85.3929 1.46469 93.4385 0.0119773 101.551 0C94.8251 0 88.3501 1.5295 82.2715 4.28832H88.0954C92.345 1.5295 96.88 0 101.587 0H101.557C92.5346 0.00234248 83.5715 1.45086 75.0094 4.29023H77.7901Z" fill="#BD6059"/>
<path d="M106.463 84.2599C106.463 88.1735 106.438 92.1979 106.391 96.2626H131.231C131.517 92.1979 131.676 88.1735 131.676 84.2599C131.676 80.157 131.503 75.9356 131.189 71.6721H106.385C106.435 75.9356 106.463 80.157 106.463 84.2599Z" fill="#BD6059"/>
<path d="M106.385 71.6721C106.297 64.2885 106.136 56.7825 105.916 49.5365H82.2217C81.2297 56.7825 80.5115 64.2885 80.1151 71.6721H106.385Z" fill="#BD6059"/>
<path d="M80.0864 96.2626C80.4694 103.91 81.2183 111.707 82.2543 119.216H105.906C106.138 111.707 106.302 103.922 106.389 96.2626H80.0864Z" fill="#BD6059"/>
<path d="M60.0082 13.8726H55.2205C48.7759 18.1165 42.9421 23.2193 37.881 29.0394H44.3368C48.8461 23.2964 54.1184 18.1938 60.0082 13.8726Z" fill="#BD6059"/>
<path d="M79.7665 84.258C79.7665 80.157 79.891 75.9356 80.117 71.6721H57.645C57.2715 75.8285 57.0704 80.0365 57.0704 84.258C57.0704 88.2843 57.2466 92.2878 57.5875 96.2626H80.0863C79.8795 92.1979 79.7665 88.1735 79.7665 84.258Z" fill="#BD6059"/>
<path d="M77.84 154.603C80.9176 158.482 84.2499 161.677 87.7756 164.012H95.1679C93.5018 161.654 91.9218 158.448 90.4529 154.603H77.84Z" fill="#BD6059"/>
<path d="M38.6164 84.2599C38.6165 80.0523 38.8723 75.8487 39.3824 71.6721H26.306C25.169 79.8281 25.1458 88.1004 26.2371 96.2626H39.3173C38.8522 92.2785 38.6182 88.2709 38.6164 84.2599Z" fill="#BD6059"/>
<path d="M82.2217 49.5366C83.2138 42.3078 84.4758 35.3467 85.9581 29.0394H68.657C65.7498 35.2358 63.2946 42.1606 61.4159 49.5366H82.2217Z" fill="#BD6059"/>
<path d="M101.597 0C99.4176 0 97.3167 1.55626 95.3326 4.29023H102.993C102.551 1.55435 102.076 0 101.597 0Z" fill="#BD6059"/>
<path d="M117.477 4.29023C112.481 1.5295 107.147 0 101.597 0C104.6 0 107.495 1.55435 110.232 4.29023H117.477Z" fill="#BD6059"/>
<path d="M180.213 96.2626H185.125C186.306 88.1063 186.281 79.8211 185.05 71.6721H180.14C181.363 79.8217 181.388 88.106 180.213 96.2626Z" fill="#BD6059"/>
<path d="M140.259 138.477H123.462C122.483 141.572 121.434 144.516 120.321 147.271C119.254 149.908 118.128 152.366 116.95 154.607H129.362C129.887 154.03 130.404 153.437 130.914 152.829C134.378 148.701 137.519 143.878 140.259 138.477Z" fill="#BD6059"/>
<path d="M128.246 119.216H147.621C149.681 111.705 151.05 104.022 151.71 96.2626H131.232C130.684 103.965 129.687 111.63 128.246 119.216Z" fill="#BD6059"/>
<path d="M131.186 71.6721H151.666C150.993 64.1912 149.662 56.784 147.686 49.5365H128.29C129.669 56.8552 130.636 64.2453 131.186 71.6721Z" fill="#BD6059"/>
<path d="M129.322 13.8726H116.927C119.212 18.2049 121.3 23.3535 123.142 29.0394H139.738C136.701 23.2369 133.198 18.1265 129.322 13.8726Z" fill="#BD6059"/>
<path d="M162.768 119.216H173.603C176.855 111.905 179.079 104.181 180.213 96.2626H168.387C167.44 104.111 165.553 111.817 162.768 119.216Z" fill="#BD6059"/>
<path d="M74.3755 164.012C83.1395 166.997 92.3367 168.52 101.597 168.518C93.2666 168.509 85.0079 166.982 77.2271 164.012H74.3755Z" fill="#BD6059"/>
<path d="M110.456 164.012C107.656 166.891 104.682 168.518 101.597 168.518C107.287 168.518 112.751 166.916 117.854 164.012H110.456Z" fill="#BD6059"/>
<path d="M101.599 168.518C110.193 168.509 118.718 166.983 126.781 164.012H122.991C116.267 166.906 109.077 168.518 101.599 168.518Z" fill="#BD6059"/>
<path d="M101.597 168.518C102.097 168.518 102.578 166.891 103.03 164.012H95.168C97.1999 166.891 99.3582 168.518 101.597 168.518Z" fill="#BD6059"/>
<path d="M168.32 71.6721H180.14C178.989 64.0405 176.824 56.5963 173.701 49.5365H162.854C165.525 56.68 167.359 64.1079 168.32 71.6721Z" fill="#BD6059"/>
<path d="M82.2542 119.217H61.4752C63.1542 125.82 65.4066 132.264 68.2069 138.477H85.7263C84.9603 135.148 84.2709 131.638 83.6389 128.023C83.1352 125.149 82.6679 122.212 82.2542 119.217Z" fill="#BD6059"/>
<path d="M138.231 154.603H144.72C151.165 150.058 156.937 144.629 161.866 138.477H152.796C148.581 144.652 143.678 150.099 138.231 154.603Z" fill="#BD6059"/>
<path d="M26.2372 96.2626H18.0615C19.1967 104.197 21.4682 111.927 24.8066 119.216H32.4345C29.5979 112.429 27.6042 105.32 26.4976 98.0483C26.4153 97.4537 26.3176 96.861 26.2372 96.2626Z" fill="#BD6059"/>
<path d="M82.2715 4.29028H77.7902C71.4471 6.64709 65.4626 9.872 60.0083 13.8726H67.7262C72.221 9.88823 77.0969 6.63806 82.2715 4.29028Z" fill="#BD6059"/>
<path d="M77.8744 13.8726H90.4701C91.9831 9.92265 93.6109 6.65909 95.3307 4.29028H88.0954C84.4566 6.64188 81.0343 9.89779 77.8744 13.8726Z" fill="#BD6059"/>
<path d="M54.711 29.0394H44.333C39.414 35.2915 35.3781 42.1883 32.3386 49.5366H44.5954C47.1283 42.3225 50.5248 35.4403 54.711 29.0394Z" fill="#BD6059"/>
<path d="M152.238 84.2599C152.238 88.3302 152.047 92.3356 151.71 96.2626H168.387C169.384 88.0946 169.361 79.8346 168.32 71.6721H151.658C152.039 75.7852 152.232 79.9811 152.238 84.2599Z" fill="#BD6059"/>
<path d="M43.5498 138.477H37.0059C42.25 144.693 48.3624 150.124 55.1554 154.603H59.9432C53.7356 150.037 48.2151 144.606 43.5498 138.477Z" fill="#BD6059"/>
<path d="M152.106 29.0394H161.061C156.3 23.275 150.786 18.1739 144.666 13.8726H138.178C143.478 18.285 148.162 23.386 152.106 29.0394Z" fill="#BD6059"/>
<path d="M110.232 4.29028H102.993C103.376 6.65909 103.74 9.92265 104.077 13.8726H116.927C114.844 9.92265 112.609 6.65909 110.232 4.29028Z" fill="#BD6059"/>
<path d="M129.322 13.8726H138.178C133.449 9.93105 128.167 6.70265 122.501 4.29028H117.477C121.7 6.63041 125.674 9.8672 129.322 13.8726Z" fill="#BD6059"/>
<path d="M54.7111 29.0394H68.6569C71.3592 23.279 74.4636 18.1609 77.8744 13.8726H67.7243C62.902 18.1494 58.5202 23.2637 54.7111 29.0394Z" fill="#BD6059"/>
<path d="M126.781 164.012H128.818C133.23 162.51 137.509 160.646 141.611 158.437C143.815 157.251 145.96 155.973 148.046 154.603H144.72C143.205 155.666 141.655 156.674 140.068 157.628C135.854 160.176 131.405 162.314 126.781 164.012Z" fill="#BD6059"/>
<path d="M60.6882 115.982C59.1918 109.49 58.1563 102.9 57.5895 96.2626H39.3174C39.6832 99.4076 40.1964 102.511 40.8342 105.566C41.7977 110.198 43.0774 114.759 44.6644 119.216H61.4753C61.1995 118.153 60.941 117.068 60.6882 115.982Z" fill="#BD6059"/>
<path d="M61.4159 49.5365H44.5897C42.0524 56.7035 40.3088 64.1262 39.3901 71.6721H57.645C58.3085 64.205 59.5695 56.8028 61.4159 49.5365Z" fill="#BD6059"/>
<path d="M166.188 138.477C171.108 132.637 175.213 126.158 178.389 119.217H173.602C170.539 126.115 166.594 132.589 161.866 138.477H166.188Z" fill="#BD6059"/>
<path d="M147.686 49.5366H162.854C160.157 42.2767 156.545 35.389 152.106 29.0394H139.738C142.95 35.1784 145.635 42.0612 147.686 49.5366Z" fill="#BD6059"/>
<path d="M24.705 49.5365C21.5005 56.5763 19.2899 64.0258 18.1361 71.6721H26.306C27.3644 64.0672 29.3917 56.6285 32.3386 49.5365H24.705Z" fill="#BD6059"/>
<path d="M105.082 29.0394C104.784 23.3535 104.447 18.2049 104.077 13.8726H90.4701C88.8117 18.2049 87.2968 23.3535 85.9581 29.0394H105.082Z" fill="#BD6059"/>
<path d="M67.6783 154.603H59.9431C65.2516 158.502 71.0636 161.667 77.2213 164.012H81.8176C76.7961 161.675 72.0543 158.494 67.6783 154.603Z" fill="#BD6059"/>
<path d="M105.14 138.477H85.7264C87.1168 144.539 88.7044 150.026 90.4529 154.603H104.081C104.452 150.231 104.793 145.021 105.092 139.278C105.106 139.01 105.121 138.746 105.14 138.477Z" fill="#BD6059"/>
<path d="M104.081 154.603C103.753 158.448 103.401 161.654 103.029 164.012H110.456C112.754 161.654 114.926 158.448 116.95 154.603H104.081Z" fill="#BD6059"/>
<path d="M105.906 119.217C105.699 125.983 105.437 132.504 105.14 138.477H123.468C125.438 132.155 127.036 125.724 128.255 119.217H105.906Z" fill="#BD6059"/>
<path d="M44.6701 119.217H32.4344C35.2975 126.084 39.0305 132.557 43.5421 138.477H54.0638C50.2175 132.429 47.0664 125.969 44.6701 119.217Z" fill="#BD6059"/>
<path d="M107.438 182.855C81.0612 184.398 55.6495 175.617 35.895 158.094C16.4547 140.859 4.78779 117.207 2.9263 91.3759L0 92.1521C2.04343 118.536 14.0359 142.685 33.9091 160.314C52.7213 176.999 76.5051 186 101.461 186C103.504 186 105.552 185.936 107.605 185.809C124.866 184.829 141.59 179.458 156.185 170.206L154.59 167.698C140.425 176.681 124.193 181.899 107.438 182.855Z" fill="#BD6059"/>
</svg>
