<svg width="139" height="139" viewBox="0 0 139 139" fill="none" xmlns="http://www.w3.org/2000/svg">
<path fill-rule="evenodd" clip-rule="evenodd" d="M127.036 108.2C105.798 139.841 62.932 148.274 31.2909 127.036C-0.349989 105.799 -8.78346 62.932 12.4545 31.2909C33.6924 -0.349981 76.5591 -8.78332 108.2 12.4545C139.841 33.6925 148.274 76.5591 127.036 108.2ZM61.0194 49.7305C66.4098 53.3486 73.7132 51.9118 77.3316 46.521C80.9497 41.1306 79.5129 33.8271 74.1226 30.209C68.7317 26.5906 61.4282 28.0275 57.8101 33.4179C54.1917 38.8087 55.6286 46.1121 61.0194 49.7305ZM91.5742 70.2394C96.9651 73.8578 104.268 72.421 107.887 67.0301C111.505 61.6398 110.068 54.3363 104.677 50.7179C99.287 47.0998 91.9836 48.5367 88.3655 53.9271C84.747 59.3179 86.1839 66.6213 91.5742 70.2394ZM56.7819 89.976C43.657 81.1664 40.1587 63.3845 48.9683 50.2596L38.7832 43.4232C26.198 62.1731 31.1955 87.576 49.9454 100.161C68.6957 112.747 94.0983 107.749 106.684 88.9989L96.4982 82.1624C87.6886 95.2873 69.9072 98.7859 56.7819 89.976Z" fill="#BD6059"/>
</svg>
