<svg width="32" height="32" viewBox="0 0 32 32" fill="none" xmlns="http://www.w3.org/2000/svg">
<path d="M30.7071 9.70726L26.9942 13.4201C26.8945 17.0896 25.4939 20.6685 23.1166 23.2961C20.3321 26.3735 16.4881 28.0002 12 28.0002C7.63597 28.0002 5.38646 25.8009 5.29283 25.7073C5.16492 25.5793 5.07411 25.4191 5.03007 25.2437C4.98602 25.0682 4.9904 24.8841 5.04272 24.7109C5.09504 24.5378 5.19336 24.382 5.3272 24.2603C5.46103 24.1386 5.62537 24.0555 5.80272 24.0198C6.86998 23.8036 9.51915 22.9617 10.6465 21.4441C9.43779 20.7472 8.36451 19.8382 7.47801 18.7609C4.34153 14.9522 4.408 10.1659 5.01609 6.82128C5.05043 6.63248 5.13835 6.45755 5.26938 6.31735C5.40041 6.17716 5.56901 6.07762 5.75506 6.03062C5.94111 5.98363 6.13675 5.99115 6.31864 6.0523C6.50053 6.11344 6.66099 6.22563 6.78086 6.37548C6.81523 6.4182 10.1019 10.4448 15 11.7603V11.0005C15.0105 9.3993 15.6565 7.86779 16.7959 6.74268C17.9353 5.61757 19.4748 4.99096 21.076 5.0006C22.1161 5.015 23.1348 5.29894 24.0323 5.82467C24.9299 6.3504 25.6758 7.09995 26.1971 8.00011L30 8.00017C30.1978 8.00017 30.3911 8.05882 30.5555 8.16869C30.72 8.27857 30.8482 8.43475 30.9239 8.61747C30.9996 8.80019 31.0194 9.00126 30.9808 9.19524C30.9422 9.38922 30.847 9.5674 30.7071 9.70726Z" fill="#F8F8F8"/>
</svg>
